# Blender v2.74 (sub 0) OBJ File: ''
# www.blender.org
mtllib Basic Cube.mtl
o Cube
v -1.000000 -1.000000 1.000000
v -1.000000 1.000000 1.000000
v -1.000000 -1.000000 -1.000000
v -1.000000 1.000000 -1.000000
v 1.000000 -1.000000 1.000000
v 1.000000 1.000000 1.000000
v 1.000000 -1.000000 -1.000000
v 1.000000 1.000000 -1.000000
vt 0.999820 0.000180
vt 0.666847 0.000180
vt 0.666847 0.333153
vt 0.999820 0.333153
vt 0.666486 0.333514
vt 0.333514 0.333514
vt 0.333514 0.666486
vt 0.666486 0.666486
vt 0.000180 0.666486
vt 0.333153 0.666486
vt 0.333153 0.999459
vt 0.000180 0.999459
vt 0.000180 0.333153
vt 0.333153 0.333153
vt 0.333153 0.666126
vt 0.000180 0.666126
vt 0.666486 0.333153
vt 0.666486 0.000180
vt 0.333514 0.000180
vt 0.333514 0.333153
vt 0.000180 0.000180
vt 0.333153 0.000180
vn -1.000000 0.000000 0.000000
vn 0.000000 0.000000 -1.000000
vn 1.000000 0.000000 0.000000
vn 0.000000 0.000000 1.000000
vn 0.000000 -1.000000 0.000000
vn 0.000000 1.000000 0.000000
usemtl Material
s off
f 2/1/1 4/2/1 3/3/1 1/4/1
f 4/5/2 8/6/2 7/7/2 3/8/2
f 8/9/3 6/10/3 5/11/3 7/12/3
f 6/13/4 2/14/4 1/15/4 5/16/4
f 1/17/5 3/18/5 7/19/5 5/20/5
f 6/13/6 8/21/6 4/22/6 2/14/6
